<svg aria-hidden="true" style="position: absolute; width: 0; height: 0; overflow: hidden;" version="1.1" xmlns="http://www.w3.org/2000/svg" xmlns:xlink="http://www.w3.org/1999/xlink">
<defs>
<symbol id="icon-logo-icon-big" viewBox="0 0 32 32">
<path d="M29.083 0.315h-4.011c-1.236 0-2.24 0.981-2.24 2.194v3.929c0 1.214 1.004 2.197 2.24 2.197h4.011c1.237 0 2.24-0.983 2.24-2.196v-3.929c0-1.214-1.003-2.196-2.24-2.196zM6.731 23.040h-4.318c-1.333 0-2.412 0.983-2.412 2.196v3.929c0 1.212 1.081 2.196 2.412 2.196h4.318c1.333 0 2.412-0.983 2.412-2.196v-3.929c0-1.212-1.081-2.196-2.412-2.196zM6.249 11.582h-4.009c-1.237 0-2.24 0.983-2.24 2.196v3.929c0 1.212 1.003 2.196 2.24 2.196h4.009c1.237 0 2.24-0.983 2.24-2.196v-3.929c0-1.212-1.003-2.196-2.24-2.196zM17.765 22.978h-4.009c-1.237 0-2.24 0.983-2.24 2.196v3.929c0 1.212 1.003 2.196 2.24 2.196h4.009c1.237 0 2.24-0.983 2.24-2.196v-3.929c0-1.212-1.003-2.196-2.24-2.196zM6.249 0.087h-4.009c-1.237 0-2.24 0.98-2.24 2.194v3.929c0 1.216 1.003 2.199 2.24 2.199h4.009c1.237 0 2.24-0.983 2.24-2.196v-3.929c0.002-1.218-1.001-2.199-2.238-2.199zM18.076 11.698h-4.011c-1.237 0-2.24 0.983-2.24 2.196v3.929c0 1.212 1.004 2.196 2.24 2.196h4.011c1.237 0 2.24-0.983 2.24-2.196v-3.929c0-1.212-1.003-2.196-2.24-2.196zM29.333 22.978h-4.009c-1.237 0-2.24 0.983-2.24 2.196v3.929c0 1.212 1.003 2.196 2.24 2.196h4.009c1.237 0 2.24-0.983 2.24-2.196v-3.929c0-1.212-1.003-2.196-2.24-2.196zM17.591 0.224h-4.011c-1.237 0-2.24 0.983-2.24 2.196v3.929c0 1.212 1.004 2.196 2.24 2.196h4.011c1.237 0 2.24-0.983 2.24-2.196v-3.931c0-1.212-1.003-2.196-2.24-2.196zM29.044 11.925h-4.009c-1.237 0-2.24 0.983-2.24 2.196v3.929c0 1.212 1.003 2.196 2.24 2.196h4.009c1.237 0 2.24-0.983 2.24-2.196v-3.929c0-1.212-1.003-2.196-2.24-2.196z"></path>
</symbol>
<symbol id="icon-logo-icon-small" viewBox="0 0 32 32">
<path d="M29.082 0.314h-4.010c-0.006-0-0.013-0-0.020-0-1.218 0-2.206 0.98-2.22 2.195v3.929c0.014 1.216 1.002 2.196 2.22 2.196 0.007 0 0.014-0 0.021-0h4.009c0.006 0 0.013 0 0.020 0 1.218 0 2.206-0.98 2.22-2.195v-3.929c-0.014-1.216-1.002-2.196-2.22-2.196-0.007 0-0.014 0-0.021 0h0.001zM6.73 23.040h-4.318c-1.332 0-2.412 0.984-2.412 2.196v3.928c0 1.214 1.080 2.196 2.412 2.196h4.32c1.33 0 2.41-0.982 2.41-2.196v-3.928c0-1.214-1.080-2.196-2.412-2.196zM6.25 11.58h-4.010c-1.238 0-2.24 0.986-2.24 2.2v3.928c0.013 1.216 1.002 2.196 2.22 2.196 0.007 0 0.014-0 0.021-0h4.009c0.006 0 0.013 0 0.020 0 1.218 0 2.206-0.98 2.22-2.195v-3.929c0-1.214-1.004-2.196-2.24-2.196zM17.766 22.98h-4.010c-1.236 0-2.24 0.98-2.24 2.194v3.928c0.014 1.216 1.002 2.196 2.22 2.196 0.007 0 0.014-0 0.021-0h4.009c0.006 0 0.013 0 0.020 0 1.218 0 2.206-0.98 2.22-2.195v-3.929c-0.014-1.216-1.002-2.196-2.22-2.196-0.007 0-0.014 0-0.021 0h0.001zM6.25 0.086h-4.010c-1.238 0-2.24 0.984-2.24 2.196v3.928c0.013 1.216 1.002 2.196 2.22 2.196 0.007 0 0.014-0 0.021-0h4.009c0.006 0 0.013 0 0.020 0 1.218 0 2.206-0.98 2.22-2.195v-3.929c0-1.212-1.004-2.196-2.24-2.196zM18.076 11.698h-4.010c-1.236 0-2.24 0.982-2.24 2.194v3.93c0.014 1.216 1.002 2.196 2.22 2.196 0.007 0 0.014-0 0.021-0h4.009c1.238 0 2.24-0.984 2.24-2.196v-3.93c0-1.212-1.002-2.194-2.24-2.194zM29.334 22.98h-4.010c-1.238 0-2.24 0.98-2.24 2.194v3.928c0.014 1.216 1.002 2.196 2.22 2.196 0.007 0 0.014-0 0.021-0h4.009c0.006 0 0.013 0 0.020 0 1.218 0 2.206-0.98 2.22-2.195v-3.929c0-1.214-1.004-2.196-2.24-2.196zM17.59 0.224h-4.008c-1.238 0-2.24 0.982-2.24 2.196v3.928c0.014 1.216 1.002 2.196 2.22 2.196 0.007 0 0.014-0 0.021-0h4.007c0.006 0 0.013 0 0.020 0 1.218 0 2.206-0.98 2.22-2.195v-3.929c0-1.214-1.002-2.196-2.24-2.196zM29.044 11.926h-4.010c-1.236 0-2.24 0.982-2.24 2.196v3.928c0.014 1.216 1.002 2.196 2.22 2.196 0.007 0 0.014-0 0.021-0h4.009c0.006 0 0.013 0 0.020 0 1.218 0 2.206-0.98 2.22-2.195v-3.929c0-1.214-1.004-2.196-2.24-2.196z"></path>
</symbol>
<symbol id="icon-logo-text-big" viewBox="0 0 358 32">
<path d="M15.467 32c-9.297 0-15.467-6.272-15.467-16.043 0-9.557 6.080-15.957 15.247-15.957 7.712 0 13.133 4.395 13.926 11.008h-6.391c-0.617-3.797-3.569-5.931-7.535-5.931-5.553 0-8.858 4.352-8.858 10.88 0 7.168 3.701 10.965 9.077 10.965 4.672 0 7.669-2.56 7.979-6.4v-0.427h-8.597v-4.779h14.543v3.925c-0.262 7.637-5.818 12.757-13.924 12.757zM33.246 31.573v-31.147h15.467c7.889 0 11.017 3.712 11.017 9.088 0 4.821-3.524 7.125-7.622 7.68v0.128c2.643 0.64 3.834 2.048 4.934 4.821 1.41 3.499 1.632 7.68 3.437 9.173v0.256h-7.051c-1.498-1.451-1.85-6.016-2.643-8.789-0.794-2.859-2.511-3.2-5.728-3.2h-5.641v11.989h-6.17zM39.415 14.635h8.636c3.614 0 5.289-2.048 5.289-4.693 0-2.901-2.069-4.565-5.289-4.565h-8.636v9.259zM63.827 31.573v-31.147h21.99v4.949h-15.823v7.424h14.278v4.949h-14.278v8.747h16.041v5.077h-22.208zM90.321 31.573v-31.147h21.988v4.949h-15.819v7.424h14.276v4.949h-14.276v8.747h16.041v5.077h-22.21zM116.815 31.573v-31.147h7.49l10.667 17.195c3.26 5.205 3.657 6.912 3.657 6.912h0.132l-0.090-24.107h6.17v31.147h-7.535l-11.061-17.707c-2.511-4.011-3.172-6.443-3.172-6.443h-0.087v24.149h-6.17zM149.483 31.573v-6.315h6.434v6.315h-6.434zM160.548 31.573v-31.147h6.17v12.459h14.763v-12.459h6.17v31.147h-6.167v-13.739h-14.763v13.739h-6.17zM190.287 31.573l12.339-31.147h6.699l12.514 31.147h-6.609l-2.601-7.168h-13.353l-2.601 7.168h-6.389zM201.039 19.456h9.828l-2.867-7.68c-1.984-5.675-2.027-6.699-2.027-6.699h-0.087s0 1.024-1.984 6.699l-2.865 7.68zM224.467 31.573v-31.147h15.467c7.889 0 11.019 3.712 11.019 9.088 0 4.821-3.526 7.125-7.625 7.68v0.128c2.643 0.64 3.834 2.048 4.937 4.821 1.41 3.499 1.63 7.68 3.437 9.173v0.256h-7.051c-1.5-1.451-1.852-6.016-2.645-8.789-0.794-2.859-2.511-3.2-5.728-3.2h-5.641v11.989h-6.17zM230.637 14.635h8.638c3.612 0 5.286-2.048 5.286-4.693 0-2.901-2.069-4.565-5.286-4.565h-8.638v9.259zM261.589 31.573l-11.81-31.147h6.611s6.389 17.451 7.051 19.584c1.058 3.413 1.542 5.163 1.542 5.163h0.087c-0.043 0 0.442-1.749 1.542-5.163 0.706-2.133 6.831-19.584 6.831-19.584h6.389l-11.369 31.147h-6.876zM282.359 31.573v-31.147h21.99v4.949h-15.821v7.424h14.278v4.949h-14.278v8.747h16.041v5.077h-22.21zM319.887 32c-8.196 0-13.133-4.309-13.133-10.709h7.051c-0.087 3.627 2.381 5.632 6.082 5.632 3.921 0 5.773-1.493 5.773-3.712s-1.587-3.157-7.228-4.651c-5.156-1.365-10.797-2.987-10.797-9.387 0-5.077 4.585-9.173 11.81-9.173 7.447 0 12.207 4.053 12.207 9.771h-6.831c-0.043-3.029-2.159-4.693-5.376-4.693-3.127 0-5.199 1.536-5.199 3.584 0 2.432 1.717 3.2 6.212 4.437 6.654 1.792 12.030 2.517 12.030 9.472 0 5.589-5.244 9.429-12.602 9.429zM342.537 31.573v-26.069h-9.739v-5.077h25.602v5.077h-9.694v26.069h-6.17z"></path>
</symbol>
<symbol id="icon-logo-text-small" viewBox="0 0 395 32">
<path d="M16.803 32c-10.101 0-16.803-6.272-16.803-16.043 0-9.557 6.605-15.957 16.563-15.957 8.379 0 14.267 4.395 15.128 11.008h-6.944c-0.667-3.797-3.875-5.931-8.187-5.931-6.032 0-9.621 4.352-9.621 10.88 0 7.168 4.021 10.965 9.861 10.965 5.075 0 8.331-2.56 8.667-6.4v-0.427h-9.333v-4.779h15.797v3.925c-0.288 7.637-6.32 12.757-15.131 12.757zM36.115 31.573v-31.147h16.8c8.571 0 11.971 3.712 11.971 9.088 0 4.821-3.829 7.125-8.283 7.68v0.128c2.872 0.64 4.165 2.048 5.36 4.821 1.533 3.499 1.773 7.68 3.736 9.173v0.256h-7.659c-1.627-1.451-2.011-6.016-2.872-8.789-0.861-2.859-2.731-3.2-6.224-3.2h-6.128v11.989h-6.701zM42.816 14.635h9.384c3.925 0 5.744-2.048 5.744-4.693 0-2.901-2.251-4.565-5.744-4.565h-9.384v9.259zM69.336 31.573v-31.147h23.888v4.949h-17.187v7.424h15.512v4.949h-15.512v8.747h17.424v5.077h-24.125zM98.117 31.573v-31.147h23.885v4.949h-17.184v7.424h15.509v4.949h-15.509v8.747h17.424v5.077h-24.125zM126.896 31.573v-31.147h8.139l11.584 17.195c3.544 5.205 3.973 6.912 3.973 6.912h0.144l-0.096-24.107h6.701v31.147h-8.187l-12.011-17.707c-2.728-4.011-3.448-6.443-3.448-6.443h-0.096v24.149h-6.701zM162.384 31.573v-6.315h6.987v6.315h-6.987zM174.405 31.573v-31.147h6.701v12.459h16.037v-12.459h6.701v31.147h-6.699v-13.739h-16.037v13.739h-6.701zM206.712 31.573l13.403-31.147h7.277l13.595 31.147h-7.181l-2.824-7.168h-14.507l-2.821 7.168h-6.941zM218.392 19.456h10.675l-3.112-7.68c-2.155-5.675-2.203-6.699-2.203-6.699h-0.096s0 1.024-2.152 6.699l-3.112 7.68zM243.84 31.573v-31.147h16.803c8.571 0 11.968 3.712 11.968 9.088 0 4.821-3.829 7.125-8.28 7.68v0.128c2.872 0.64 4.163 2.048 5.36 4.821 1.533 3.499 1.771 7.68 3.733 9.173v0.256h-7.659c-1.627-1.451-2.011-6.016-2.872-8.789-0.861-2.859-2.728-3.2-6.224-3.2h-6.125v11.989h-6.704zM250.544 14.635h9.381c3.925 0 5.744-2.048 5.744-4.693 0-2.901-2.251-4.565-5.744-4.565h-9.381v9.259zM284.168 31.573l-12.829-31.147h7.181s6.941 17.451 7.659 19.584c1.149 3.413 1.675 5.163 1.675 5.163h0.096c-0.048 0 0.48-1.749 1.675-5.163 0.768-2.133 7.421-19.584 7.421-19.584h6.941l-12.352 31.147h-7.467zM306.731 31.573v-31.147h23.888v4.949h-17.187v7.424h15.512v4.949h-15.512v8.747h17.427v5.077h-24.128zM347.496 32c-8.904 0-14.267-4.309-14.267-10.709h7.661c-0.096 3.627 2.584 5.632 6.605 5.632 4.261 0 6.269-1.493 6.269-3.712s-1.723-3.157-7.851-4.651c-5.6-1.365-11.728-2.987-11.728-9.387 0-5.077 4.979-9.173 12.829-9.173 8.091 0 13.261 4.053 13.261 9.771h-7.421c-0.048-3.029-2.344-4.693-5.84-4.693-3.397 0-5.648 1.536-5.648 3.584 0 2.432 1.867 3.2 6.749 4.437 7.229 1.792 13.069 2.517 13.069 9.472 0 5.589-5.696 9.429-13.691 9.429zM372.099 31.573v-26.069h-10.579v-5.077h27.813v5.077h-10.531v26.069h-6.704z"></path>
</symbol>
<symbol id="icon-mobmenu-close-big" viewBox="0 0 32 32">
<path stroke-linejoin="round" stroke-linecap="round" stroke-miterlimit="4" stroke-width="3.2" d="M24 8l-16 16M8 8l16 16"></path>
</symbol>
<symbol id="icon-mobmenu-close-small" viewBox="0 0 32 32">
<path stroke-linejoin="round" stroke-linecap="round" stroke-miterlimit="4" stroke-width="3" d="M24 8l-16 16M8 8l16 16"></path>
</symbol>
<symbol id="icon-mobmenu-icon-big" viewBox="0 0 32 32">
<path stroke-linejoin="round" stroke-linecap="round" stroke-miterlimit="4" stroke-width="3.2" d="M5.334 8h21.333M5.334 16h10.666M5.333 24h21.334"></path>
</symbol>
<symbol id="icon-mobmenu-icon-small" viewBox="0 0 32 32">
<path stroke-linejoin="round" stroke-linecap="round" stroke-miterlimit="4" stroke-width="3" d="M5.333 8h21.334M5.333 16h10.667M5.334 24h21.333"></path>
</symbol>
</defs>
</svg>
